<?xml version="1.0" encoding="UTF-8"?>
<svg version="1.1" xmlns="http://www.w3.org/2000/svg" width="1254" height="1254">
<path d="M0 0 C413.82 0 827.64 0 1254 0 C1254 413.82 1254 827.64 1254 1254 C840.18 1254 426.36 1254 0 1254 C0 840.18 0 426.36 0 0 Z " fill="#FDFDFD" transform="translate(0,0)"/>
<path d="M0 0 C0.68533819 -0.00581376 1.37067639 -0.01162753 2.07678241 -0.01761746 C4.37867606 -0.03224248 6.67950752 -0.01832115 8.98139381 -0.00457001 C10.64653972 -0.00917816 12.31168156 -0.0155305 13.97681487 -0.02347898 C18.55762151 -0.04021171 23.13809577 -0.0319076 27.71890378 -0.01953411 C32.65881007 -0.0105002 37.59865838 -0.02444635 42.53855324 -0.0354538 C52.2251665 -0.0532716 61.91165598 -0.04938155 71.59827416 -0.03780323 C79.48453215 -0.02876846 87.37075546 -0.02754517 95.25701714 -0.0318985 C96.37973666 -0.03251143 97.50245619 -0.03312436 98.65919752 -0.03375587 C100.94034819 -0.03503483 103.22149885 -0.03633169 105.5026495 -0.03764623 C126.91994847 -0.04906506 148.33717909 -0.03592498 169.75446685 -0.01444477 C188.07604415 0.00336404 206.39751985 0.00037617 224.71909523 -0.01811981 C246.01962347 -0.03961323 267.32009138 -0.04789969 288.62062895 -0.03567076 C290.90132116 -0.03439669 293.18201338 -0.03313921 295.46270561 -0.0318985 C297.14558557 -0.03097285 297.14558557 -0.03097285 298.86246311 -0.03002849 C306.71323173 -0.02659614 314.56396172 -0.03235929 322.41472435 -0.04181671 C332.02178604 -0.05313532 341.62871734 -0.04979525 351.23576443 -0.02869374 C356.12465565 -0.0183043 361.01333099 -0.01384868 365.90221977 -0.02729034 C388.31480542 -0.08379914 409.95218232 0.85670316 432.09946632 4.50336456 C433.07806012 4.6632936 434.05665391 4.82322264 435.06490207 4.98799801 C483.62481284 13.0710111 535.67443653 35.93165817 571.57993507 70.12445831 C573.63873096 72.06834467 575.72987524 73.92461568 577.87290382 75.77289581 C588.87811562 85.35982397 599.23745096 95.90500762 608.09946632 107.50336456 C609.1114986 108.78799813 610.12460455 110.07178627 611.13852882 111.35492706 C648.58407217 159.099104 670.64128718 216.33405064 677.09946632 276.50336456 C677.25415382 277.84697052 677.25415382 277.84697052 677.41196632 279.21772003 C685.64661332 357.3439334 658.52391157 438.52152671 610.09946632 499.50336456 C609.31442726 500.49465363 608.5293882 501.48594269 607.72056007 502.50727081 C603.97956021 507.15978334 600.18622203 511.58898886 595.87778664 515.72284698 C594.11514412 517.4876674 592.50615122 519.32095145 590.89243507 521.22211456 C587.1650245 525.50706481 583.18143905 529.43697114 579.03696632 533.31586456 C578.29599709 534.01018585 577.55502785 534.70450714 576.791605 535.41986847 C570.19239816 541.53461954 563.32801103 547.15474057 556.09946632 552.50336456 C555.53163429 552.92811066 554.96380226 553.35285675 554.3787632 553.79047394 C542.08173627 562.95432377 529.03065166 570.50677857 515.59946632 577.87836456 C514.66747414 578.39060577 513.73548195 578.90284698 512.77524757 579.43061066 C507.96528477 582.04468316 503.18335194 584.45359747 498.09946632 586.50336456 C497.40562843 586.78808624 496.71179054 587.07280792 495.99692726 587.36615753 C461.69922934 601.32011247 425.26662259 609.45652885 388.24405861 609.85181427 C386.66175297 609.86935825 385.07949716 609.89233058 383.49735451 609.92102814 C381.25490261 609.9569582 379.0140488 609.96455467 376.77134132 609.96430206 C375.46262062 609.97251984 374.15389992 609.98073761 372.80552101 609.98920441 C367.11241612 609.24287511 363.81037062 607.34545767 359.92939186 603.16689301 C356.80152877 598.20374983 357.52735942 592.19727695 357.55014992 586.54071808 C357.53992805 585.23435394 357.52970619 583.92798981 357.51917458 582.58203888 C357.49246293 579.0096095 357.49122923 575.43760416 357.49630117 571.86509442 C357.49844518 568.87805419 357.48866231 565.89109896 357.47909033 562.90407699 C357.45692395 555.85499515 357.45601174 548.80612648 357.46811867 541.75702667 C357.48019992 534.49495045 357.45556812 527.23364906 357.41297853 519.97170502 C357.37770652 513.72689024 357.3657499 507.48232165 357.37225401 501.23741096 C357.37587364 497.51190382 357.37067016 493.78694954 357.34282494 490.06153297 C357.31292249 485.9056482 357.33164086 481.75133316 357.35483742 477.59540558 C357.33954994 476.36764908 357.32426247 475.13989258 357.30851173 473.87493134 C357.38752115 467.47210557 357.81511546 463.41913247 362.42251968 458.76966 C366.09656296 455.99531756 369.04371198 455.23753579 373.61509132 455.01117706 C374.69347267 454.94833527 375.77185402 454.88549347 376.88291359 454.82074738 C378.02687599 454.75726105 379.17083839 454.69377472 380.34946632 454.62836456 C390.75185281 453.92892451 400.16204791 452.67999463 410.09946632 449.50336456 C410.77735207 449.29195831 411.45523781 449.08055206 412.15366554 448.86273956 C439.96742555 440.0868318 466.38459207 423.68392913 483.97446632 400.06586456 C484.48767433 399.37774689 485.00088234 398.68962921 485.52964211 397.98065948 C508.76534661 366.16978751 520.70535724 325.14742482 515.22886086 285.87030792 C514.61798324 282.05920209 513.8939313 278.28012883 513.09946632 274.50336456 C512.71661476 272.635513 512.71661476 272.635513 512.32602882 270.72992706 C506.77249596 247.24204953 494.57103835 225.81284829 479.09946632 207.50336456 C478.33763039 206.58813019 477.57579445 205.67289581 476.79087257 204.72992706 C471.46203151 198.55569054 465.59394939 193.42210844 459.09946632 188.50336456 C458.1584507 187.78535675 457.21743507 187.06734894 456.24790382 186.32758331 C440.43844441 174.82793777 422.91692305 166.68008246 404.09946632 161.50336456 C403.13943703 161.22669952 402.17940773 160.95003448 401.19028664 160.66498566 C392.75507726 158.4452628 384.75955883 158.03884058 376.09897804 158.11225128 C373.86543725 158.12825016 371.63373192 158.11235667 369.40024757 158.09320831 C335.60280707 158.04448978 308.80998605 172.43223189 280.41367531 189.11396027 C272.32996487 193.83983158 264.13404872 198.32683628 255.88340187 202.75312042 C248.59890665 206.66823227 241.40490106 210.71874919 234.23887062 214.84589386 C227.10554295 218.94720619 219.9224601 222.95427559 212.72446632 226.94086456 C204.28785872 231.61455175 195.86589436 236.31149792 187.47446632 241.06586456 C179.56921814 245.54477425 171.65320318 250.00365331 163.72446632 254.44086456 C162.68822121 255.02086212 161.65197609 255.60085968 160.58432961 256.19843292 C155.29106645 259.16024717 149.99644305 262.11961696 144.70102882 265.07758331 C134.08015676 271.01335128 123.47865338 276.97924719 112.92197609 283.02851105 C106.38919686 286.77104803 99.84199362 290.48743806 93.28696632 294.19086456 C92.31009865 294.74282501 91.33323097 295.29478546 90.32676125 295.86347198 C86.223156 298.18054449 82.11836974 300.49535327 78.00571632 302.79633331 C68.67974914 308.01581963 59.4218048 313.34864444 50.17124367 318.70063019 C42.77734449 322.97337366 35.35554473 327.19286583 27.91196632 331.37836456 C18.30787017 336.78235894 8.71682458 342.23819412 -0.54897118 348.21039581 C-2.87313485 349.48829976 -4.27760677 349.98654218 -6.90053368 350.06586456 C-7.85959618 350.12967316 -7.85959618 350.12967316 -8.83803368 350.19477081 C-12.37899228 349.00774492 -14.25850006 346.72943084 -15.90053368 343.50336456 C-16.65263456 339.06717704 -16.57043553 334.67062315 -16.52872276 330.18024445 C-16.53376974 328.80577433 -16.54099974 327.4313108 -16.55022091 326.05686235 C-16.56914928 322.2850565 -16.55690667 318.51389903 -16.53949797 314.74210954 C-16.52612991 310.67249775 -16.54155902 306.60298119 -16.55331993 302.5333786 C-16.57170513 294.5630849 -16.56317839 286.59303625 -16.54523171 278.62275016 C-16.53120966 272.14552382 -16.52731205 265.66836403 -16.53067398 259.19112396 C-16.53115142 258.26947395 -16.53162887 257.34782393 -16.53212078 256.39824513 C-16.5331471 254.5259677 -16.53420246 252.65369029 -16.53528654 250.7814129 C-16.54385538 234.22334904 -16.52717264 217.66540353 -16.4974575 201.10736847 C-16.46861966 185.03798196 -16.46153632 168.96876595 -16.47694969 152.89936066 C-16.49370829 135.40349668 -16.49774954 117.90771367 -16.48023933 100.41184759 C-16.47839493 98.54643346 -16.4765602 96.68101932 -16.47473526 94.81560516 C-16.47382317 93.89777064 -16.47291108 92.97993612 -16.47197135 92.03428844 C-16.46636383 85.56437696 -16.46967515 79.09450498 -16.47628021 72.62459564 C-16.48400933 64.7405809 -16.47727604 56.85673405 -16.45210517 48.97275317 C-16.43960029 44.94970496 -16.43347547 40.92691826 -16.44464684 36.90386009 C-16.4546798 33.22124885 -16.44625034 29.53915936 -16.42306565 25.85661167 C-16.41545487 23.89292327 -16.42746876 21.92918913 -16.44016939 19.96552706 C-16.33843517 9.20783492 -16.33843517 9.20783492 -11.90053368 4.50336456 C-7.92818105 0.69559485 -5.46846725 0.0029092 0 0 Z " fill="#0867FC" transform="translate(355.90053367614746,163.49663543701172)"/>
<path d="M0 0 C2.57327248 1.64664356 3.56881392 2.3914751 5 5 C5.76612935 9.49935407 5.66497879 13.97007939 5.62145996 18.52435303 C5.62578903 19.93294392 5.63230509 21.34152951 5.64082003 22.75010133 C5.65783234 26.62099378 5.64361621 30.49124059 5.62430525 34.36209917 C5.60889454 38.53675382 5.62227609 42.71132851 5.63204956 46.88598633 C5.64658871 55.06531168 5.63432847 63.24438912 5.61293632 71.423691 C5.58893658 80.94954062 5.59064017 90.47533329 5.59324223 100.00120643 C5.59693412 117.00118131 5.57609449 134.00103937 5.54199219 151.00097656 C5.50892068 167.49319412 5.4947302 183.98528901 5.50097656 200.47753906 C5.50774409 218.43414056 5.50526845 236.39069064 5.48561716 254.34728456 C5.48405793 255.77241571 5.48405793 255.77241571 5.4824672 257.22633739 C5.48037631 259.13451406 5.47826533 261.04269071 5.47613403 262.95086734 C5.46924329 269.58866596 5.46856836 276.22644873 5.47001648 282.86425018 C5.47145784 290.95825187 5.46173578 299.05215363 5.43807012 307.14612219 C5.4262275 311.27480613 5.41907333 315.40335098 5.42490768 319.53205109 C5.43009495 323.31470145 5.42133706 327.09705847 5.40163308 330.87965873 C5.39467843 332.88988714 5.40232253 334.90014986 5.41055441 336.91037345 C5.34267586 345.95039282 4.68449299 354.30707183 -2 361 C-4.3840332 362.64648438 -4.3840332 362.64648438 -7.05078125 364.09375 C-8.04754883 364.64240723 -9.04431641 365.19106445 -10.07128906 365.75634766 C-11.14088867 366.33175293 -12.21048828 366.9071582 -13.3125 367.5 C-15.58493789 368.74684472 -17.85706667 369.99425295 -20.12890625 371.2421875 C-21.27891113 371.86963867 -22.42891602 372.49708984 -23.61376953 373.14355469 C-28.68567109 375.92414152 -33.71881736 378.7715902 -38.75 381.625 C-39.69609131 382.1600415 -40.64218262 382.69508301 -41.61694336 383.24633789 C-47.88090266 386.79048381 -54.13016663 390.35979263 -60.375 393.9375 C-69.06162699 398.91316701 -77.7879737 403.81551644 -86.52685547 408.69873047 C-94.80024742 413.32296332 -103.05580927 417.97802776 -111.30224609 422.65014648 C-113.03998566 423.63420794 -114.77878668 424.61639807 -116.51879883 425.59643555 C-118.19041935 426.54203688 -119.85686401 427.49683991 -121.51831055 428.46020508 C-122.31019775 428.91419678 -123.10208496 429.36818848 -123.91796875 429.8359375 C-124.6143042 430.23989746 -125.31063965 430.64385742 -126.02807617 431.06005859 C-129.18538956 432.56503031 -131.5979935 432.60035409 -135 432 C-137.80362451 429.86828674 -138.8860603 428.72657395 -139.43797588 425.20710278 C-139.40919259 424.12412065 -139.3804093 423.04113852 -139.35075378 421.92533875 C-139.3285376 420.67939438 -139.30632141 419.43345001 -139.28343201 418.14974976 C-139.23884728 416.77129578 -139.19408735 415.39284747 -139.14916992 414.0144043 C-139.11696939 412.56038291 -139.08690191 411.10631294 -139.05880737 409.65220642 C-138.99619788 406.51991415 -138.92331621 403.38808208 -138.8439846 400.25617027 C-138.72321148 395.29111401 -138.65556687 390.32623596 -138.60090637 385.36006165 C-138.58674463 384.10110196 -138.58674463 384.10110196 -138.5722968 382.81670874 C-138.5531487 381.10017243 -138.53415134 379.38363444 -138.51530135 377.66709483 C-138.38682218 366.10859043 -138.2268142 354.55373167 -137.90649414 342.9987793 C-137.69069637 335.20000754 -137.56522702 327.40538267 -137.54143602 319.60358936 C-137.52533063 315.47837217 -137.46498076 311.36501318 -137.29381371 307.24307823 C-136.08450357 290.2597885 -136.08450357 290.2597885 -142.3343544 275.23862076 C-148.13959032 270.45950622 -154.54757636 267.44616733 -161.45905495 264.59887123 C-167.96781401 261.65991921 -173.95371032 257.78178073 -180 254 C-179.99308655 255.5322928 -179.99308655 255.5322928 -179.98603344 257.095541 C-179.87496639 281.96769414 -179.79283839 306.83981506 -179.74093914 331.71216393 C-179.71517303 343.74032793 -179.6800527 355.76832797 -179.62280273 367.79638672 C-179.57291931 378.28176695 -179.54069741 388.76702842 -179.52955753 399.25252402 C-179.52304721 404.80300389 -179.50777884 410.35314402 -179.47134972 415.90351486 C-179.43731246 421.13201412 -179.42696276 426.36003496 -179.43446159 431.58863449 C-179.43309051 433.50340376 -179.42320434 435.41818968 -179.40397263 437.33286285 C-179.22278675 456.3084711 -179.22278675 456.3084711 -185 464 C-188.65129547 467.69425188 -193.26501795 469.92907865 -197.8125 472.375 C-205.09717835 476.35454407 -212.28345396 480.47799227 -219.4375 484.6875 C-228.05820436 489.75020079 -236.74669234 494.67037299 -245.5 499.5 C-254.10604072 504.24904833 -262.65021818 509.08288426 -271.125 514.0625 C-279.57565579 519.02752547 -288.07354945 523.89796437 -296.625 528.6875 C-298.19918701 529.5703064 -298.19918701 529.5703064 -299.80517578 530.47094727 C-314.85932235 538.87500896 -314.85932235 538.87500896 -320 538 C-323.10164769 535.44975635 -324.72566416 533.82300753 -326 530 C-326.09543576 528.10589572 -326.1309388 526.20856648 -326.13422108 524.31206226 C-326.13867892 523.11970142 -326.14313676 521.92734058 -326.14772969 520.69884759 C-326.14754533 519.38233876 -326.14736097 518.06582992 -326.14717102 516.70942688 C-326.15046976 515.3018565 -326.15419534 513.89428706 -326.1583125 512.48671883 C-326.16833953 508.60960211 -326.17205042 504.73250088 -326.17470181 500.85537302 C-326.17860278 496.6773129 -326.18818126 492.49926506 -326.19691467 488.32121277 C-326.21668492 478.22667816 -326.22674598 468.13214253 -326.23564246 458.03759339 C-326.24002443 453.28527163 -326.24539147 448.53295099 -326.25063133 443.78063011 C-326.26764414 427.98519402 -326.28213869 412.18975862 -326.28938007 396.39431477 C-326.29129 392.2945334 -326.29321033 388.19475204 -326.29516602 384.0949707 C-326.29564976 383.07597544 -326.2961335 382.05698018 -326.2966319 381.00710627 C-326.30493358 364.49715826 -326.33027261 347.98728268 -326.36274669 331.47736631 C-326.39580672 314.53156528 -326.41382788 297.58580107 -326.41702431 280.63996762 C-326.41919039 271.1236495 -326.42795325 261.607437 -326.45348549 252.09115028 C-326.47517804 243.98719929 -326.48325003 235.88337956 -326.47351871 227.77940283 C-326.46896981 223.64471922 -326.47089434 219.51030651 -326.49028015 215.37565994 C-326.50788276 211.58862416 -326.50693803 207.8020575 -326.49138286 204.01501694 C-326.48787674 201.99994666 -326.50405473 199.98487162 -326.52098733 197.96986943 C-326.46310426 189.83875418 -325.59463303 184.36273467 -320.30102539 177.93798828 C-314.48976535 173.02577428 -308.12863622 169.46066014 -301.4375 165.875 C-300.23390218 165.21999795 -299.03094994 164.56380835 -297.82861328 163.90649414 C-295.99328691 162.90335063 -294.1575973 161.9009532 -292.31982422 160.90229797 C-286.63417232 157.81241282 -281.00044323 154.63528633 -275.375 151.4375 C-267.43028712 146.93376967 -259.47090013 142.45721727 -251.5 138 C-241.57315424 132.44759245 -231.66333394 126.86588525 -221.765625 121.26171875 C-217.6752197 118.9458483 -213.58088871 116.63707905 -209.484375 114.33203125 C-208.42041504 113.73269775 -207.35645508 113.13336426 -206.26025391 112.51586914 C-204.20596025 111.35882927 -202.15097197 110.20302165 -200.09521484 109.04858398 C-199.17949707 108.53239502 -198.2637793 108.01620605 -197.3203125 107.484375 C-196.50836426 107.02772461 -195.69641602 106.57107422 -194.85986328 106.10058594 C-193.05184182 105.13465282 -193.05184182 105.13465282 -192 104 C-180.43651551 102.50793749 -173.04204002 110.16513928 -164.3125 116.75 C-163.72654053 117.20213867 -163.14058105 117.65427734 -162.53686523 118.12011719 C-155.23941987 123.71453811 -147.5954148 128.82270074 -140 134 C-139.99857498 133.35377686 -139.99714996 132.70755371 -139.99568176 132.04174805 C-139.97593706 125.29254152 -139.92156054 118.54423359 -139.84741211 111.79541016 C-139.82426972 109.2795253 -139.80984528 106.76354408 -139.80444336 104.24755859 C-139.79512696 100.62276414 -139.75407289 96.99947762 -139.70703125 93.375 C-139.7109639 92.25697998 -139.71489655 91.13895996 -139.71894836 89.98706055 C-139.56928481 81.90699321 -137.83124173 76.90069788 -132.1550293 71.12158203 C-126.61225279 67.23865396 -120.80036038 64.02018768 -114.8125 60.875 C-112.65779863 59.72593547 -110.50417054 58.57485631 -108.3515625 57.421875 C-107.27938477 56.84759766 -106.20720703 56.27332031 -105.10253906 55.68164062 C-100.58868696 53.23503901 -96.13456557 50.69048123 -91.6875 48.125 C-83.60254504 43.46851476 -75.47213367 38.89931572 -67.3125 34.375 C-66.73208954 34.05309692 -66.15167908 33.73119385 -65.55368042 33.39953613 C-61.70344156 31.26457179 -57.85190152 29.13196271 -54 27 C-41.99362608 20.35324961 -30.02486985 13.64318548 -18.08203125 6.8828125 C-17.20740234 6.38869873 -16.33277344 5.89458496 -15.43164062 5.38549805 C-13.90846767 4.51762591 -12.39058849 3.64032083 -10.88085938 2.74926758 C-6.99469264 0.4590594 -4.56371851 -0.89290145 0 0 Z " fill="#0867FC" transform="translate(667,492)"/>
<path d="M0 0 C5.96476908 1.29735647 9.70508063 3.65857902 14.4375 7.4375 C15.83113573 8.51846423 17.22704008 9.59650888 18.625 10.671875 C19.33914063 11.22166016 20.05328125 11.77144531 20.7890625 12.33789062 C25.09964507 15.57844342 29.57191943 18.58410393 34.03491211 21.60913086 C38.92649985 24.92649985 38.92649985 24.92649985 40 26 C40.09646028 27.83494486 40.12187344 29.67364587 40.12025452 31.51112366 C40.12162918 32.7073082 40.12300385 33.90349274 40.12442017 35.13592529 C40.12088057 36.47351099 40.11724575 37.81109644 40.11352539 39.14868164 C40.11324352 40.54782611 40.11340125 41.94697073 40.1139679 43.34611511 C40.11425588 47.15586459 40.10835898 50.96558286 40.10139394 54.77532506 C40.09516059 58.75251309 40.09455662 62.72970176 40.09336853 66.70689392 C40.09025516 74.24338539 40.08204169 81.77986243 40.07201904 89.31634754 C40.06085808 97.89419828 40.0553475 106.4720497 40.05032361 115.0499059 C40.03985908 132.69994546 40.02225953 150.34997157 40 168 C35.72046194 166.62696139 32.11306219 165.06350076 28.26171875 162.734375 C26.65973633 161.76951172 26.65973633 161.76951172 25.02539062 160.78515625 C23.92388672 160.11355469 22.82238281 159.44195313 21.6875 158.75 C20.05264648 157.76580078 20.05264648 157.76580078 18.38476562 156.76171875 C1.62049325 146.62049325 1.62049325 146.62049325 -1 144 C-1.09866627 142.15469827 -1.12632156 140.30557912 -1.12698364 138.4576416 C-1.12980347 137.25448807 -1.13262329 136.05133453 -1.13552856 134.8117218 C-1.13358397 133.46627793 -1.13153579 132.1208342 -1.12939453 130.77539062 C-1.13074854 129.3680161 -1.13252847 127.96064193 -1.13470459 126.55326843 C-1.13927895 122.72072932 -1.13748935 118.88821701 -1.1343255 115.05567741 C-1.13180192 111.05359701 -1.13413944 107.05151897 -1.13571167 103.04943848 C-1.13753337 96.32738837 -1.13512705 89.60534923 -1.13037109 82.88330078 C-1.12492847 75.10061276 -1.12669113 67.31795093 -1.1321975 59.53526354 C-1.13672862 52.86521699 -1.13737918 46.19517834 -1.13475883 39.52513075 C-1.13319605 35.53614338 -1.13300232 31.54716835 -1.13629532 27.55818176 C-1.13917402 23.80884888 -1.13719837 20.05954992 -1.13140106 16.31022072 C-1.13007346 14.93029143 -1.13046759 13.55035931 -1.13266373 12.17043114 C-1.13537517 10.29440789 -1.13138046 8.41837845 -1.12698364 6.5423584 C-1.12660662 5.49004784 -1.12622959 4.43773727 -1.12584114 3.35353851 C-1 1 -1 1 0 0 Z " fill="#065FE9" transform="translate(488,601)"/>
<path d="M0 0 C5.82568732 0.64554914 11.17003794 2.10700584 16.75 3.875 C17.59949219 4.13152344 18.44898438 4.38804687 19.32421875 4.65234375 C20.14019531 4.90886719 20.95617187 5.16539062 21.796875 5.4296875 C22.90047363 5.77362549 22.90047363 5.77362549 24.02636719 6.12451172 C26.20442285 7.0906804 27.43385458 8.22557084 29 10 C28.01 10.495 28.01 10.495 27 11 C24.70703125 10.1796875 24.70703125 10.1796875 21.8125 8.875 C14.68076879 5.78140578 7.3935269 3.37360495 0 1 C0 0.67 0 0.34 0 0 Z " fill="#4D8DFA" transform="translate(760,324)"/>
<path d="M0 0 C0.66 0.33 1.32 0.66 2 1 C-1.20482958 3.65543022 -4.36567986 5.97154225 -8 8 C-8.64453125 8.36609375 -9.2890625 8.7321875 -9.953125 9.109375 C-10.64921875 9.48578125 -11.3453125 9.8621875 -12.0625 10.25 C-12.71347656 10.60578125 -13.36445312 10.9615625 -14.03515625 11.328125 C-16.43107329 12.14740478 -17.61357092 11.68901971 -20 11 C-19.14450562 10.55346069 -19.14450562 10.55346069 -18.27172852 10.09790039 C-15.70097638 8.7546883 -13.13172348 7.40863353 -10.5625 6.0625 C-9.66466797 5.59392578 -8.76683594 5.12535156 -7.84179688 4.64257812 C-6.98779297 4.19462891 -6.13378906 3.74667969 -5.25390625 3.28515625 C-4.06776733 2.66459351 -4.06776733 2.66459351 -2.85766602 2.03149414 C-1.04434725 1.13599249 -1.04434725 1.13599249 0 0 Z " fill="#D5E8FE" transform="translate(888,731)"/>
<path d="M0 0 C0.66 0.33 1.32 0.66 2 1 C-1.74538039 5.19936589 -4.73412001 7.2766211 -10 9 C-12.21484375 8.5703125 -12.21484375 8.5703125 -14 8 C-11.7136988 6.63597957 -9.42178251 5.28365726 -7.125 3.9375 C-6.47402344 3.54755859 -5.82304688 3.15761719 -5.15234375 2.75585938 C-3.46934275 1.77555467 -1.73703801 0.88101568 0 0 Z " fill="#2377FC" transform="translate(652,497)"/>
<path d="M0 0 C0.33 0.66 0.66 1.32 1 2 C0.21654285 3.17219543 -0.57702836 4.33763668 -1.375 5.5 C-1.81585937 6.1496875 -2.25671875 6.799375 -2.7109375 7.46875 C-3.13632812 7.9740625 -3.56171875 8.479375 -4 9 C-4.66 9 -5.32 9 -6 9 C-4.68775452 5.06326356 -3.08089673 2.77280706 0 0 Z " fill="#2276FD" transform="translate(536,562)"/>
<path d="M0 0 C0.66 0.33 1.32 0.66 2 1 C0.92892883 1.86949317 -0.15745944 2.72014205 -1.25 3.5625 C-1.85328125 4.03816406 -2.4565625 4.51382813 -3.078125 5.00390625 C-5 6 -5 6 -7.234375 5.65234375 C-7.81703125 5.43707031 -8.3996875 5.22179687 -9 5 C-7.54735962 4.1361871 -6.0876837 3.28419546 -4.625 2.4375 C-3.40683594 1.72400391 -3.40683594 1.72400391 -2.1640625 0.99609375 C-1.44992187 0.66738281 -0.73578125 0.33867188 0 0 Z " fill="#DBECFD" transform="translate(424,989)"/>
<path d="M0 0 C-1.45255699 3.82946843 -3.42895561 5.12050295 -7 7 C-3.86206897 0 -3.86206897 0 0 0 Z " fill="#196EFC" transform="translate(722,621)"/>
<path d="M0 0 C-1.36983503 3.16115776 -1.9890638 3.9927092 -5 6 C-5.99 5.67 -6.98 5.34 -8 5 C-2.25 0 -2.25 0 0 0 Z " fill="#1C73FC" transform="translate(823,583)"/>
<path d="M0 0 C0.66 0.33 1.32 0.66 2 1 C2 1.66 2 2.32 2 3 C-2.43076923 5.09230769 -2.43076923 5.09230769 -5.3125 4.625 C-5.869375 4.41875 -6.42625 4.2125 -7 4 C-1.7265625 0.77734375 -1.7265625 0.77734375 0 0 Z " fill="#297BFD" transform="translate(582,536)"/>
<path d="M0 0 C-5.41538462 4.06153846 -5.41538462 4.06153846 -8.375 3.75 C-8.91125 3.5025 -9.4475 3.255 -10 3 C-3.375 -1.125 -3.375 -1.125 0 0 Z " fill="#D4E8FE" transform="translate(560,914)"/>
</svg>
