<svg xmlns="http://www.w3.org/2000/svg" width="420" height="720" viewBox="0 0 420 720" role="img" aria-label="PipNest Markets secure access install preview">
  <defs>
    <linearGradient id="bg" x1="0" x2="1" y1="0" y2="1">
      <stop offset="0" stop-color="#172554"/>
      <stop offset=".54" stop-color="#0f172a"/>
      <stop offset="1" stop-color="#312e81"/>
    </linearGradient>
    <linearGradient id="panel" x1="0" x2="1">
      <stop offset="0" stop-color="#ffffff" stop-opacity=".18"/>
      <stop offset="1" stop-color="#ffffff" stop-opacity=".06"/>
    </linearGradient>
    <filter id="shadow" x="-20%" y="-20%" width="140%" height="140%">
      <feDropShadow dx="0" dy="18" stdDeviation="18" flood-color="#00111f" flood-opacity=".36"/>
    </filter>
  </defs>
  <rect width="420" height="720" rx="34" fill="url(#bg)"/>
  <circle cx="210" cy="360" r="210" fill="#2563eb" opacity=".11"/>
  <circle cx="84" cy="132" r="108" fill="#a78bfa" opacity=".14"/>
  <g filter="url(#shadow)">
    <rect x="34" y="36" width="352" height="652" rx="30" fill="#081327" stroke="#ffffff" stroke-opacity=".15"/>
    <rect x="58" y="62" width="72" height="72" rx="22" fill="#ffffff"/>
    <image href="/logo-icon.png" x="70" y="74" width="48" height="48" preserveAspectRatio="xMidYMid meet"/>
    <text x="146" y="84" fill="#e0e7ff" font-family="Arial, Helvetica, sans-serif" font-size="18" font-weight="800">PipNest Markets</text>
    <text x="146" y="112" fill="#93c5fd" font-family="Arial, Helvetica, sans-serif" font-size="14" font-weight="700">Secure mobile workspace</text>
    <text x="58" y="184" fill="#ffffff" font-family="Arial, Helvetica, sans-serif" font-size="38" font-weight="900">Secure</text>
    <text x="58" y="230" fill="#ffffff" font-family="Arial, Helvetica, sans-serif" font-size="38" font-weight="900">Access</text>
    <text x="58" y="272" fill="#c7d2fe" font-family="Arial, Helvetica, sans-serif" font-size="18" font-weight="700">2FA, notifications, profile</text>
    <text x="58" y="298" fill="#c7d2fe" font-family="Arial, Helvetica, sans-serif" font-size="18" font-weight="700">controls and app-style login.</text>
    <rect x="92" y="346" width="236" height="176" rx="28" fill="url(#panel)" stroke="#93c5fd" stroke-opacity=".22"/>
    <path d="M210 382l82 34v56c0 54-40 92-82 108-42-16-82-54-82-108v-56z" fill="#2563eb" opacity=".45" stroke="#bfdbfe" stroke-width="3"/>
    <path d="M176 470l26 26 52-62" fill="none" stroke="#ffffff" stroke-width="15" stroke-linecap="round" stroke-linejoin="round"/>
    <rect x="58" y="558" width="304" height="54" rx="17" fill="#ffffff" opacity=".11"/>
    <circle cx="88" cy="585" r="12" fill="#22c55e"/>
    <text x="112" y="591" fill="#ffffff" font-family="Arial, Helvetica, sans-serif" font-size="17" font-weight="800">2FA enabled</text>
    <rect x="58" y="626" width="304" height="34" rx="17" fill="#2563eb"/>
    <text x="126" y="648" fill="#ffffff" font-family="Arial, Helvetica, sans-serif" font-size="15" font-weight="900">Install PipNest Markets</text>
  </g>
</svg>
